<svg xmlns="http://www.w3.org/2000/svg" xmlns:xlink="http://www.w3.org/1999/xlink" viewBox="0 0 16 16"><defs><style>.cls-1{fill:#ae0000;}.cls-2{fill:url(#linear-gradient);}.cls-3{fill:url(#linear-gradient-2);}</style><linearGradient id="linear-gradient" x1="3.74" y1="10.26" x2="14.1" y2="9.74" gradientTransform="matrix(1, 0, 0, -1, 0, 18)" gradientUnits="userSpaceOnUse"><stop offset="0" stop-color="#c60000"/><stop offset="0.4" stop-color="#c60615"/><stop offset="0.83" stop-color="#ae0000"/><stop offset="1" stop-color="#ae0000"/></linearGradient><linearGradient id="linear-gradient-2" x1="2.65" y1="7.72" x2="2.65" y2="11.54" gradientTransform="matrix(1, 0, 0, -1, 0, 18)" gradientUnits="userSpaceOnUse"><stop offset="0" stop-color="#ae0000"/><stop offset="1" stop-color="#c60000"/></linearGradient></defs><path id="Logo0" class="cls-1" d="M2.1,9.59a2.58,2.58,0,0,0,.29,1.29,1,1,0,0,0,.87.49c.42,0,.81-.1,1.56-1.13.6-.83,1.3-2,1.78-2.72l.8-1.24A12.15,12.15,0,0,1,9.35,3.82,3,3,0,0,1,11.26,3a3.65,3.65,0,0,1,3,1.84,8.4,8.4,0,0,1,1.3,4.67A4.59,4.59,0,0,1,15,11.86a2.26,2.26,0,0,1-2,1.14V11.37c.92,0,1.15-.84,1.15-1.81a7.7,7.7,0,0,0-1-4,2.37,2.37,0,0,0-1.88-1.25c-.78,0-1.4.59-2.1,1.63-.38.56-.76,1.23-1.19,2l-.47.84a23,23,0,0,1-1.67,2.7A3,3,0,0,1,3.26,13,2.44,2.44,0,0,1,1,11.79,4.33,4.33,0,0,1,.48,9.54Z"/><path id="Logo1" class="cls-2" d="M1.76,5A3.78,3.78,0,0,1,4.81,3,3.32,3.32,0,0,1,7,3.82,13.52,13.52,0,0,1,9.73,7.37l.39.64a25.15,25.15,0,0,0,1.77,2.73c.4.49.68.63,1,.63.92,0,1.15-.84,1.15-1.81l1.43-.05A4.59,4.59,0,0,1,15,11.86a2.26,2.26,0,0,1-2,1.14A2.54,2.54,0,0,1,11,12.23a10.14,10.14,0,0,1-1.55-2.08L8.12,7.9A16.24,16.24,0,0,0,6.46,5.54a2.26,2.26,0,0,0-1.67-.9A2.1,2.1,0,0,0,3.14,5.78Z"/><path id="Logo2" class="cls-3" d="M4.79,4.64A2.1,2.1,0,0,0,3.14,5.78a7.26,7.26,0,0,0-1,3.81,2.58,2.58,0,0,0,.29,1.29L1,11.79A4.33,4.33,0,0,1,.48,9.54,8.59,8.59,0,0,1,1.76,5,3.78,3.78,0,0,1,4.81,3Z"/></svg>